<?xml version="1.0" encoding="UTF-8"?>
<svg xmlns="http://www.w3.org/2000/svg" xmlns:xlink="http://www.w3.org/1999/xlink" width="900px" height="900px" viewBox="0 0 900 900" version="1.1">
<g id="surface1">
<path style="fill-rule:nonzero;fill:rgb(0%,0%,0%);fill-opacity:1;stroke-width:6.4;stroke-linecap:round;stroke-linejoin:round;stroke:rgb(80%,80%,80%);stroke-opacity:1;stroke-miterlimit:4;" d="M 24.686944 16.036944 C 26.98 18.51 28.006944 20.943056 27.115972 22.503056 C 26.226944 24.059028 23.635 24.38 20.378056 23.616944 C 19.403056 26.875972 17.824028 29.004028 16.036944 29.004028 C 14.248056 29.004028 12.67 26.869028 11.696944 23.600972 C 8.404028 24.385972 5.780972 24.070972 4.885 22.503056 C 3.994028 20.943056 5.021944 18.506944 7.315 16.030972 C 4.978056 13.535 3.925972 11.070972 4.825 9.499028 C 5.725 7.923056 8.373056 7.611944 11.689028 8.411944 C 12.663056 5.136944 14.246944 2.995972 16.038056 2.995972 C 17.828056 2.995972 19.406944 5.13 20.38 8.396944 C 23.665 7.616944 26.284028 7.933056 27.179028 9.499028 C 28.075 11.071944 27.021944 13.538056 24.686944 16.036944 Z M 5.751944 10.040972 C 5.064028 11.245 6.013056 13.219028 8.021944 15.305972 C 8.840972 14.506944 9.784028 13.714028 10.834028 12.951944 C 10.961944 11.685972 11.156944 10.485 11.424028 9.391944 C 8.616944 8.670972 6.443056 8.831944 5.751944 10.040972 Z M 10.720972 14.360972 C 10.000972 14.909028 9.344028 15.465 8.755 16.02 C 9.351944 16.578056 9.995972 17.138056 10.725 17.69 C 10.695 17.135 10.674028 16.574028 10.674028 16 C 10.674028 15.444028 10.691944 14.898056 10.720972 14.360972 Z M 10.833056 19.094028 C 9.781944 18.335 8.841944 17.544028 8.02 16.748056 C 6.046944 18.815972 5.130972 20.766944 5.813056 21.960972 C 6.5 23.161944 8.650972 23.329028 11.433056 22.623056 C 11.165972 21.535972 10.96 20.354028 10.833056 19.094028 Z M 20.089028 19.835 C 19.643056 20.128056 19.186944 20.415972 18.711944 20.693056 C 18.23 20.974028 17.748056 21.231944 17.268056 21.478056 C 18.090972 21.828056 18.895972 22.133056 19.66 22.366944 C 19.839028 21.583056 19.978056 20.728056 20.089028 19.835 Z M 16.035972 27.92 C 17.405 27.92 18.62 26.135 19.405972 23.363056 C 18.320972 23.050972 17.175 22.616944 16.006944 22.089028 C 14.86 22.61 13.738056 23.029028 12.67 23.341944 C 13.454028 26.120972 14.666944 27.92 16.035972 27.92 Z M 12.423056 22.341944 C 13.165 22.110972 13.940972 21.824028 14.739028 21.484028 C 14.256944 21.236944 13.771944 20.975972 13.288056 20.694028 C 12.839028 20.430972 12.406944 20.160972 11.984028 19.884028 C 12.093056 20.760972 12.248056 21.57 12.423056 22.341944 Z M 11.985972 12.155972 C 12.426944 11.866944 12.879028 11.583056 13.348056 11.308056 C 13.810972 11.036944 14.274028 10.788056 14.735972 10.55 C 13.935 10.208056 13.150972 9.905972 12.405 9.673056 C 12.230972 10.443056 12.095972 11.281944 11.985972 12.155972 Z M 16.035972 4.08 C 14.663056 4.08 13.441944 5.881944 12.656944 8.674028 C 13.724028 8.988056 14.848056 9.419028 15.993056 9.940972 C 17.165 9.404028 18.310972 8.975 19.401944 8.656944 C 18.618056 5.88 17.405972 4.08 16.035972 4.08 Z M 19.650972 9.655 C 18.883056 9.894028 18.080972 10.19 17.253056 10.545972 C 17.718056 10.785 18.185 11.035972 18.650972 11.309028 C 19.153056 11.601944 19.633056 11.906944 20.101944 12.216944 C 19.991944 11.301944 19.833056 10.456944 19.650972 9.655 Z M 20.24 13.604028 C 19.57 13.138056 18.861944 12.683056 18.114028 12.248056 C 17.398056 11.83 16.688056 11.465 15.985972 11.124028 C 15.293056 11.461944 14.59 11.836944 13.885 12.248056 C 13.171944 12.663056 12.490972 13.096944 11.85 13.539028 C 11.788056 14.335972 11.745972 15.151944 11.745972 16.000972 C 11.745972 16.859028 11.780972 17.694028 11.843056 18.5 C 12.47 18.930972 13.131944 19.351944 13.824028 19.755972 C 14.56 20.185 15.29 20.56 16.011944 20.908056 C 16.725 20.561944 17.449028 20.179028 18.174028 19.755972 C 18.893056 19.336944 19.575972 18.900972 20.223056 18.454028 C 20.284028 17.66 20.326944 16.846944 20.326944 16.000972 C 20.326944 15.179028 20.296944 14.378056 20.24 13.604028 Z M 26.186944 21.960972 C 26.869028 20.769028 25.945 18.820972 23.975972 16.758056 C 23.175 17.531944 22.258056 18.3 21.24 19.039028 C 21.111944 20.320972 20.914028 21.538056 20.641944 22.643056 C 23.388056 23.328056 25.506944 23.150972 26.186944 21.960972 Z M 21.353056 17.63 C 22.041944 17.104028 22.674028 16.57 23.244028 16.039028 C 22.671944 15.499028 22.055 14.955972 21.356944 14.420972 C 21.381944 14.94 21.4 15.465 21.4 16 C 21.399028 16.554028 21.380972 17.095972 21.353056 17.63 Z M 26.246944 10.040972 C 25.560972 8.841944 23.416944 8.671944 20.641944 9.375 C 20.915 10.493056 21.125972 11.714028 21.251944 13.015972 C 22.270972 13.760972 23.181944 14.535972 23.98 15.315 C 25.993056 13.224028 26.936944 11.246944 26.246944 10.040972 Z M 16.2 18.061944 C 15.023056 18.061944 14.069028 17.099028 14.069028 15.91 C 14.069028 14.720972 15.023056 13.758056 16.2 13.758056 C 17.375972 13.758056 18.33 14.721944 18.33 15.91 C 18.33 17.1 17.375972 18.061944 16.2 18.061944 Z M 16.2 18.061944 " transform="matrix(28.125,0,0,28.125,0,0)"/>
<path style=" stroke:none;fill-rule:nonzero;fill:rgb(0%,0%,0%);fill-opacity:1;" d="M 694.320312 451.039062 C 758.8125 520.59375 787.695312 589.023438 762.636719 632.898438 C 737.632812 676.660156 664.734375 685.6875 573.132812 664.226562 C 545.710938 755.886719 501.300781 815.738281 451.039062 815.738281 C 400.726562 815.738281 356.34375 755.691406 328.976562 663.777344 C 236.363281 685.855469 162.589844 676.996094 137.390625 632.898438 C 112.332031 589.023438 141.242188 520.507812 205.734375 450.871094 C 140.007812 380.671875 110.417969 311.371094 135.703125 267.160156 C 161.015625 222.835938 235.492188 214.085938 328.753906 236.585938 C 356.148438 144.476562 400.695312 84.261719 451.070312 84.261719 C 501.414062 84.261719 545.820312 144.28125 573.1875 236.164062 C 665.578125 214.226562 739.238281 223.117188 764.410156 267.160156 C 789.609375 311.398438 759.992188 380.757812 694.320312 451.039062 Z M 161.773438 282.402344 C 142.425781 316.265625 169.117188 371.785156 225.617188 430.480469 C 248.652344 408.007812 275.175781 385.707031 304.707031 364.273438 C 308.304688 328.667969 313.789062 294.890625 321.300781 264.148438 C 242.351562 243.871094 181.210938 248.398438 161.773438 282.402344 Z M 301.527344 403.902344 C 281.277344 419.316406 262.800781 434.953125 246.234375 450.5625 C 263.023438 466.257812 281.136719 482.007812 301.640625 497.53125 C 300.796875 481.921875 300.207031 466.144531 300.207031 450 C 300.207031 434.363281 300.710938 419.007812 301.527344 403.902344 Z M 304.679688 537.019531 C 275.117188 515.671875 248.679688 493.425781 225.5625 471.039062 C 170.070312 529.199219 144.308594 584.070312 163.492188 617.652344 C 182.8125 651.429688 243.308594 656.128906 321.554688 636.273438 C 314.042969 605.699219 308.25 572.457031 304.679688 537.019531 Z M 565.003906 557.859375 C 552.460938 566.101562 539.632812 574.199219 526.273438 581.992188 C 512.71875 589.894531 499.164062 597.148438 485.664062 604.070312 C 508.808594 613.914062 531.449219 622.492188 552.9375 629.070312 C 557.972656 607.023438 561.882812 582.976562 565.003906 557.859375 Z M 451.011719 785.25 C 489.515625 785.25 523.6875 735.046875 545.792969 657.085938 C 515.277344 648.308594 483.046875 636.101562 450.195312 621.253906 C 417.9375 635.90625 386.382812 647.691406 356.34375 656.492188 C 378.394531 734.652344 412.507812 785.25 451.011719 785.25 Z M 349.398438 628.367188 C 370.265625 621.871094 392.089844 613.800781 414.535156 604.238281 C 400.976562 597.289062 387.335938 589.949219 373.726562 582.019531 C 361.097656 574.621094 348.945312 567.027344 337.050781 559.238281 C 340.117188 583.902344 344.476562 606.65625 349.398438 628.367188 Z M 337.105469 341.886719 C 349.507812 333.757812 362.222656 325.773438 375.414062 318.039062 C 388.433594 310.414062 401.457031 303.414062 414.449219 296.71875 C 391.921875 287.101562 369.871094 278.605469 348.890625 272.054688 C 343.996094 293.710938 340.199219 317.304688 337.105469 341.886719 Z M 451.011719 114.75 C 412.398438 114.75 378.054688 165.429688 355.976562 243.957031 C 385.988281 252.789062 417.601562 264.910156 449.804688 279.589844 C 482.765625 264.488281 514.996094 252.421875 545.679688 243.476562 C 523.632812 165.375 489.542969 114.75 451.011719 114.75 Z M 552.683594 271.546875 C 531.085938 278.269531 508.527344 286.59375 485.242188 296.605469 C 498.320312 303.328125 511.453125 310.386719 524.558594 318.066406 C 538.679688 326.304688 552.179688 334.882812 565.367188 343.601562 C 562.273438 317.867188 557.804688 294.101562 552.683594 271.546875 Z M 569.25 382.613281 C 550.40625 369.507812 530.492188 356.710938 509.457031 344.476562 C 489.320312 332.71875 469.351562 322.453125 449.605469 312.863281 C 430.117188 322.367188 410.34375 332.914062 390.515625 344.476562 C 370.460938 356.148438 351.308594 368.351562 333.28125 380.785156 C 331.539062 403.199219 330.355469 426.148438 330.355469 450.027344 C 330.355469 474.160156 331.339844 497.644531 333.085938 520.3125 C 350.71875 532.433594 369.335938 544.273438 388.800781 555.636719 C 409.5 567.703125 430.03125 578.25 450.335938 588.039062 C 470.390625 578.304688 490.753906 567.535156 511.144531 555.636719 C 531.367188 543.851562 550.574219 531.589844 568.773438 519.019531 C 570.488281 496.6875 571.695312 473.820312 571.695312 450.027344 C 571.695312 426.910156 570.851562 404.382812 569.25 382.613281 Z M 736.507812 617.652344 C 755.691406 584.128906 729.703125 529.339844 674.324219 471.320312 C 651.796875 493.085938 626.007812 514.6875 597.375 535.472656 C 593.773438 571.527344 588.207031 605.757812 580.554688 636.835938 C 657.789062 656.101562 717.382812 651.121094 736.507812 617.652344 Z M 600.554688 495.84375 C 619.929688 481.050781 637.707031 466.03125 653.738281 451.097656 C 637.648438 435.910156 620.296875 420.636719 600.664062 405.589844 C 601.367188 420.1875 601.875 434.953125 601.875 450 C 601.847656 465.582031 601.339844 480.824219 600.554688 495.84375 Z M 738.195312 282.402344 C 718.902344 248.679688 658.601562 243.898438 580.554688 263.671875 C 588.234375 295.117188 594.167969 329.457031 597.710938 366.074219 C 626.371094 387.027344 651.992188 408.824219 674.4375 430.734375 C 731.054688 371.925781 757.601562 316.320312 738.195312 282.402344 Z M 455.625 507.992188 C 422.523438 507.992188 395.691406 480.910156 395.691406 447.46875 C 395.691406 414.027344 422.523438 386.945312 455.625 386.945312 C 488.699219 386.945312 515.53125 414.054688 515.53125 447.46875 C 515.53125 480.9375 488.699219 507.992188 455.625 507.992188 Z M 455.625 507.992188 "/>
</g>
</svg>
