 <svg
          class="morphing"
          inkscape:version="0.91 r13725"
          x="0px"
          y="0px"
          width="100vw"
          height="100vh"
          viewBox="150 150 7000 7000"
          style="enable-background: new 9 80 800 400"
          xml:space="preserve"
        >
          <path
            id="cercle"
            class="st1"
            d="M490.1,280.649c0,44.459-36.041,80.5-80.5,80.5s-80.5-36.041-80.5-80.5s36.041-80.5,80.5-80.5
	S490.1,236.19,490.1,280.649z"
          />

          <path
            transform="scale(0.00625)"
            id="pieuvre"
            d="M3350 5494 c-257 -52 -455 -156 -613 -324 -142 -151 -192 -279 -191 -490 0 -143 16 -215 69 -321 43 -85 86 -134 222 -254 135 -121 173 -167 173 -211 0 -27 -6 -36 -32 -50 -66 -34 -280 2 -503 86 -281 106 -375 175 -447 326 -34 73 -50 148 -77 359 -31 246 -64 329 -155 389 -96 63 -211 57 -372 -20 -80 -39 -120 -75 -110 -99 5 -14 21 -16 98 -14 56 1 109 -3 134 -11 35 -11 45 -11 74 3 18 10 34 17 36 17 2 0 15 -16 30 -35 19 -25 23 -39 16 -48 -31 -39 -20 -133 19 -161 18 -12 19 -18 8 -59 -7 -31 -18 -48 -31 -53 -21 -6 -57 -75 -58 -109 0 -11 7 -33 15 -49 22 -41 19 -98 -5 -119 -37 -31 -15 -152 30 -164 27 -7 50 -53 50 -99 0 -61 49 -124 97 -124 28 0 79 -57 75 -84 -6 -46 75 -113 126 -103 32 6 102 -31 102 -54 0 -17 33 -50 67 -68 26 -13 68 -14 92 -2 18 10 145 -21 166 -40 11 -11 -15 -11 -220 1 -245 14 -345 40 -552 147 -195 101 -241 115 -343 111 -111 -5 -193 -43 -290 -135 -117 -110 -189 -247 -210 -400 -29 -217 87 -469 255 -549 52 -25 119 -32 130 -13 4 5 -9 31 -29 56 -28 36 -36 55 -36 88 0 48 -32 103 -70 122 -28 14 -38 35 -39 79 -1 20 5 34 14 38 43 16 70 122 44 165 -10 14 -7 25 14 57 24 35 30 38 66 35 32 -2 45 3 75 29 20 18 39 43 42 56 5 21 12 24 54 24 43 0 49 -3 52 -22 2 -12 19 -33 38 -46 29 -20 44 -23 90 -19 68 5 115 -15 129 -54 5 -16 25 -38 43 -49 34 -21 102 -27 113 -11 10 17 96 -19 105 -44 18 -48 144 -66 170 -25 9 15 110 0 110 -16 0 -44 137 -57 170 -17 13 16 34 21 123 26 59 4 107 3 107 -1 0 -4 -73 -24 -163 -46 -274 -65 -350 -99 -440 -195 -86 -92 -117 -190 -117 -377 0 -61 -4 -135 -10 -164 -31 -164 -141 -280 -265 -280 -45 0 -164 33 -310 84 -125 45 -184 54 -192 30 -2 -6 17 -36 42 -67 25 -31 45 -64 45 -75 0 -10 17 -35 37 -55 29 -30 44 -37 75 -37 44 0 133 -50 141 -80 11 -42 132 -82 152 -50 11 18 102 11 145 -11 52 -27 113 -19 150 21 31 34 101 70 133 70 35 0 97 71 97 110 0 43 29 110 62 146 39 41 48 104 23 150 -25 47 -14 120 20 128 44 11 90 120 65 151 -16 19 -1 38 58 76 40 25 45 26 70 13 15 -8 36 -14 46 -14 31 0 105 40 111 60 8 24 109 50 127 32 32 -32 159 3 166 44 2 15 106 82 175 112 53 24 -160 -245 -348 -438 -175 -181 -215 -235 -241 -334 -30 -111 -11 -272 46 -391 75 -158 205 -236 444 -265 158 -20 303 -2 413 52 78 39 63 59 -56 72 -35 4 -80 16 -100 27 -40 21 -88 25 -124 8 -17 -8 -35 -8 -66 1 -34 9 -45 18 -57 45 -18 45 -78 85 -125 85 -34 0 -39 4 -58 45 -26 55 -26 54 1 82 29 32 38 122 13 147 -17 16 -17 19 0 57 16 34 22 39 52 39 21 0 47 10 68 25 34 26 61 76 51 93 -10 16 72 64 92 54 41 -21 142 48 142 97 0 19 59 71 80 71 22 0 67 39 80 70 7 16 10 44 8 62 -5 30 17 98 31 98 12 0 42 -90 36 -109 -13 -43 55 -141 100 -141 28 0 70 -65 66 -102 -2 -22 6 -37 37 -68 25 -25 49 -40 64 -40 37 0 87 -66 81 -106 -8 -51 47 -134 88 -134 22 0 27 -7 35 -57 6 -40 6 -41 -20 -36 -21 4 -35 -3 -71 -39 -25 -26 -45 -55 -45 -67 0 -31 -35 -27 -67 9 -30 34 -91 54 -134 45 -16 -4 -61 -1 -100 6 -61 11 -72 10 -85 -3 -24 -24 -9 -54 49 -97 100 -74 256 -140 372 -155 117 -16 290 45 360 127 77 90 85 218 23 349 -39 81 -63 117 -218 323 -116 153 -169 241 -200 330 -24 69 -25 85 -6 85 23 0 76 -50 76 -71 0 -50 53 -109 97 -109 32 0 75 -69 67 -107 -8 -43 44 -119 88 -128 38 -8 92 -67 95 -104 4 -46 100 -116 132 -96 16 9 111 -43 145 -80 40 -42 104 -55 144 -29 36 24 126 20 160 -7 39 -30 110 -21 157 20 33 30 109 46 145 31 42 -17 116 -7 144 19 20 19 29 21 57 13 33 -8 34 -9 31 -56 -2 -26 1 -60 8 -76 10 -24 9 -38 -9 -86 -26 -68 -21 -94 19 -94 21 0 39 13 75 52 101 113 140 257 96 355 -62 135 -193 173 -483 139 -223 -26 -331 -19 -434 30 -80 38 -167 133 -330 359 -102 141 -124 177 -124 204 0 27 6 26 84 -5 45 -18 63 -30 59 -39 -14 -37 101 -94 151 -75 32 12 117 -19 154 -56 29 -28 23 -27 174 -28 105 -1 119 -3 132 -21 21 -29 130 -29 154 0 22 26 123 48 158 34 49 -18 141 28 148 75 3 20 89 86 113 86 45 1 115 101 95 136 -10 18 26 135 46 147 37 24 52 103 31 162 -16 42 12 145 39 145 39 0 107 108 87 139 -3 5 7 19 22 31 20 15 38 20 67 18 23 -2 40 -7 39 -13 -5 -35 71 -85 130 -85 19 0 55 -12 81 -26 89 -50 99 -2 25 113 -99 152 -244 231 -405 221 -148 -10 -228 -92 -325 -335 -136 -343 -262 -446 -544 -446 -91 0 -112 4 -224 42 -187 63 -258 104 -228 130 24 19 169 40 195 28 42 -19 152 22 152 57 0 18 111 61 156 61 50 1 110 42 121 83 9 37 83 127 114 139 35 14 73 93 65 136 -8 44 18 136 43 154 45 31 66 119 39 162 -9 15 -7 30 9 72 16 44 25 55 46 57 34 4 84 51 93 88 10 43 21 52 70 60 38 5 48 3 65 -14 34 -37 137 -50 155 -21 3 5 12 9 21 9 27 0 104 -41 101 -53 -8 -43 57 -99 116 -102 17 0 61 -15 97 -33 63 -32 99 -35 99 -8 -1 22 -46 98 -94 159 -117 147 -267 247 -423 281 -194 43 -367 0 -490 -120 -73 -72 -99 -111 -198 -289 -98 -177 -150 -250 -222 -314 -118 -105 -337 -191 -488 -191 -66 0 -99 12 -120 43 -14 22 -14 29 -1 66 20 59 50 98 181 240 198 213 238 296 238 491 0 373 -217 692 -557 817 -139 51 -218 64 -406 68 -102 2 -196 1 -210 -1z"
          />

          <path
    
            id="ancre"
            d="M3840 7264 c-30 -8 -91 -32 -135 -53 -202 -98 -334 -271 -381 -501 -62 -310 113 -636 411 -766 l65 -28 0 -183 0 -183 -404 0 -404 0 -22 35 c-33 53 -106 112 -169 136 -78 29 -194 24 -271 -12 -68 -32 -133 -97 -168 -169 -23 -47 -27 -67 -27 -145 0 -79 3 -97 29 -150 108 -219 384 -269 556 -99 l46 44 374 -2 375 -3 3 -64 c2 -36 -8 -308 -22 -605 -14 -298 -30 -653 -36 -791 -6 -137 -17 -392 -25 -565 -8 -173 -19 -432 -25 -575 -13 -326 -26 -452 -51 -521 -80 -214 -278 -248 -574 -99 -190 97 -330 201 -486 362 -83 87 -186 220 -176 229 2 2 98 -23 213 -56 115 -33 220 -59 234 -58 50 6 29 41 -112 189 -174 184 -186 198 -264 296 -159 200 -262 395 -345 646 -29 88 -58 161 -66 164 -21 8 -42 -15 -79 -89 -64 -126 -108 -263 -139 -433 -26 -139 -31 -466 -10 -640 29 -243 97 -547 127 -566 43 -27 54 12 88 316 18 157 21 162 55 95 70 -138 175 -293 291 -430 182 -215 375 -356 894 -654 409 -235 574 -365 729 -573 61 -83 83 -85 136 -8 43 63 198 225 265 278 120 93 268 187 530 337 180 103 430 261 528 335 219 163 413 387 552 636 40 71 75 128 77 125 3 -3 18 -102 33 -222 28 -219 38 -252 73 -238 20 7 39 63 72 212 57 252 69 368 70 642 0 278 -12 374 -71 567 -31 103 -113 282 -138 302 -24 20 -48 4 -59 -40 -28 -110 -99 -300 -152 -404 -111 -220 -225 -372 -481 -640 -155 -161 -176 -197 -124 -203 14 -1 119 25 234 58 115 33 211 58 213 56 7 -7 -79 -127 -137 -190 -216 -238 -513 -431 -743 -481 -177 -39 -297 22 -357 181 -27 73 -36 178 -55 644 -9 206 -27 620 -40 920 -13 300 -29 649 -35 775 -5 127 -15 347 -22 490 -6 144 -9 268 -5 278 6 16 36 17 378 17 l372 0 49 -46 c106 -99 236 -125 367 -74 278 109 295 500 27 638 -73 37 -198 43 -278 12 -62 -23 -149 -95 -174 -141 l-15 -29 -399 0 -400 0 -5 23 c-3 12 -4 93 -3 181 l3 159 91 46 c110 57 160 96 230 181 108 129 158 271 158 445 0 126 -17 202 -69 310 -87 177 -262 319 -460 370 -76 19 -260 19 -335 -1z m333 -322 c139 -68 217 -202 217 -369 0 -124 -51 -225 -153 -302 -107 -81 -231 -101 -351 -57 -300 108 -347 523 -82 704 71 47 127 62 223 59 67 -3 92 -9 146 -35z"
          />
        </svg>